<svg xmlns:xlink="http://www.w3.org/1999/xlink" xmlns="http://www.w3.org/2000/svg" width="20" height="20"><defs><rect id="a" width="20" height="20" x="0" y="0" rx="3"/></defs><g fill="none" fill-rule="evenodd"><mask id="b" fill="#fff"><use xlink:href="#a"/></mask><use fill="#F0F0F0" xlink:href="#a"/><g fill-rule="nonzero" mask="url(#b)"><path fill="#009B3A" d="M20.763 16.916c0 1.692-1.045 3.065-2.334 3.065H2.096c-1.289 0-2.333-1.373-2.333-3.065V3.125C-.237 1.432.807.06 2.096.06h16.333c1.289 0 2.334 1.372 2.334 3.065v13.79z"/><path fill="#FEDF01" d="M18.702 10.371L9.746 17 .79 10.371l8.956-6.63z"/><path fill="#002776" d="M13.66 10.323c0-2.125-1.76-3.848-3.928-3.848-2.169 0-3.927 1.723-3.927 3.848s1.758 3.849 3.927 3.849 3.927-1.724 3.927-3.849"/><path fill="#CBE9D4" d="M6.267 8.518c-.202.37-.34.776-.41 1.205 2.43-.173 5.727 1.128 7.142 2.74a3.81 3.81 0 00.537-1.195c-1.746-1.674-4.814-2.76-7.27-2.75"/><g fill="#88C9F9"><path d="M6.707 11.106h-.609v-.596h.609zM7.315 12.298h-.608v-.596h.608z"/></g><g fill="#55ACEE"><path d="M8.531 11.106h-.608v-.596h.608v.596zM9.747 11.702h-.608v-.596h.608zM12.179 12.894h-.608v-.596h.608v.596zM10.355 13.489h-.608v-.595h.608zM12.179 9.914h-.608v-.596h.608v.596z"/></g><path fill="#3B88C3" d="M10.963 12.298h-.608v-.596h.608v.596z"/></g></g></svg>