<svg xmlns:xlink="http://www.w3.org/1999/xlink" xmlns="http://www.w3.org/2000/svg" width="20" height="20"><defs><rect id="a" width="20" height="20" rx="3"/></defs><g fill="none" fill-rule="evenodd"><mask id="b" fill="#fff"><use xlink:href="#a"/></mask><use fill="#F0F0F0" xlink:href="#a"/><path fill="#D80027" fill-rule="nonzero" d="M13.595 10.117c0 .87-1.557 3.044-3.478 3.044-1.92 0-3.478-2.174-3.478-3.044a3.478 3.478 0 1 1 6.956 0z" mask="url(#b)"/><path fill="#0052B4" fill-rule="nonzero" d="M13.595 10.117a3.478 3.478 0 1 1-6.956 0" mask="url(#b)"/><path fill="#000" fill-rule="nonzero" mask="url(#b)" transform="rotate(-45 14.575 13.038)" d="M13.923 12.603h1.304v.87h-1.304z"/><path fill="#000" fill-rule="nonzero" mask="url(#b)" transform="rotate(-45 13.038 14.575)" d="M12.385 14.14h1.305v.87h-1.305z"/><path fill="#000" fill-rule="nonzero" mask="url(#b)" transform="rotate(-45 16.42 14.882)" d="M15.768 14.447h1.304v.87h-1.304z"/><path fill="#000" fill-rule="nonzero" mask="url(#b)" transform="rotate(-45 14.882 16.42)" d="M14.23 15.985h1.305v.869H14.23z"/><path fill="#000" fill-rule="nonzero" mask="url(#b)" transform="rotate(-45 15.497 13.96)" d="M14.845 13.525h1.304v.87h-1.304z"/><path fill="#000" fill-rule="nonzero" mask="url(#b)" transform="rotate(-45 13.96 15.497)" d="M13.308 15.063h1.304v.869h-1.304z"/><path fill="#000" fill-rule="nonzero" mask="url(#b)" transform="rotate(-135 14.73 5.505)" d="M12.99 5.071h3.478v.869H12.99z"/><path fill="#000" fill-rule="nonzero" mask="url(#b)" transform="rotate(-135 13.038 5.66)" d="M12.386 5.225h1.304v.869h-1.304z"/><path fill="#000" fill-rule="nonzero" mask="url(#b)" transform="rotate(-135 14.575 7.197)" d="M13.923 6.762h1.304v.869h-1.304z"/><path fill="#000" fill-rule="nonzero" mask="url(#b)" transform="rotate(-135 14.882 3.815)" d="M14.23 3.38h1.304v.87H14.23z"/><path fill="#000" fill-rule="nonzero" mask="url(#b)" transform="rotate(-135 16.42 5.352)" d="M15.768 4.917h1.304v.87h-1.304z"/><path fill="#000" fill-rule="nonzero" mask="url(#b)" transform="rotate(45 4.583 15.651)" d="M2.844 15.216h3.478v.87H2.844z"/><path fill="#000" fill-rule="nonzero" mask="url(#b)" transform="rotate(45 6.274 15.497)" d="M5.622 15.062h1.304v.87H5.622z"/><path fill="#000" fill-rule="nonzero" mask="url(#b)" transform="rotate(45 4.737 13.96)" d="M4.085 13.525h1.304v.87H4.085z"/><path fill="#000" fill-rule="nonzero" mask="url(#b)" transform="rotate(45 6.428 13.806)" d="M4.689 13.372h3.478v.869H4.689z"/><path fill="#000" fill-rule="nonzero" mask="url(#b)" transform="rotate(135 4.583 4.583)" d="M2.844 4.149h3.478v.869H2.844z"/><path fill="#000" fill-rule="nonzero" mask="url(#b)" transform="rotate(135 5.505 5.505)" d="M3.766 5.071h3.478v.869H3.766z"/><path fill="#000" fill-rule="nonzero" mask="url(#b)" transform="rotate(135 6.428 6.428)" d="M4.689 5.993h3.478v.87H4.689z"/></g></svg>