<svg xmlns:xlink="http://www.w3.org/1999/xlink" xmlns="http://www.w3.org/2000/svg" width="20" height="20"><defs><rect id="a" width="20" height="20" rx="3"/><path id="b" d="M3 0h14a3 3 0 0 1 3 3v7H0V3a3 3 0 0 1 3-3z"/></defs><g fill="none" fill-rule="evenodd"><use fill="#F0F0F0" xlink:href="#a"/><mask id="c" fill="#fff"><use xlink:href="#b"/></mask><use fill="#DD2525" xlink:href="#b"/><g fill="#FFF" fill-rule="nonzero" mask="url(#c)"><path d="M3.346 5.002c0-1.425 1.044-2.616 2.437-2.908a3.237 3.237 0 0 0-.665-.07c-1.712 0-3.1 1.334-3.1 2.978 0 1.645 1.388 2.978 3.1 2.978.228 0 .45-.024.665-.07C4.39 7.62 3.346 6.429 3.346 5.003zM7.333 2.238l.22.649h.712l-.576.402.22.65-.576-.402-.575.402.22-.65-.576-.402h.711z"/><path d="M5.607 3.514l.22.65h.712l-.576.401.22.65-.576-.401-.576.401.22-.65-.576-.401h.712zM9.06 3.514l.22.65h.711l-.575.401.22.65-.576-.401-.576.401.22-.65-.576-.401h.712zM8.395 5.428l.22.65h.712l-.576.401.22.65-.576-.401-.575.401.219-.65-.575-.401h.711zM6.271 5.428l.22.65h.712l-.576.401.22.65-.576-.401-.575.401.22-.65-.576-.401h.712z"/></g></g></svg>