<svg xmlns:xlink="http://www.w3.org/1999/xlink" xmlns="http://www.w3.org/2000/svg" width="20" height="20"><defs><rect id="a" width="20" height="20" rx="3"/></defs><g fill="none" fill-rule="evenodd"><mask id="b" fill="#fff"><use xlink:href="#a"/></mask><use fill="#F0F0F0" xlink:href="#a"/><g mask="url(#b)"><path fill="#F0F0F0" d="M0 0h20v20H0z"/><g fill="#D80027"><path d="M0 2.5h20V5H0zM0 7.5h20V10H0zM0 12.5h20V15H0zM0 17.5h20V20H0z"/></g><path fill="#2E52B2" d="M0 0h10v10.769H0z"/><g fill="#F0F0F0"><path d="M2.013 4.504l-.219.673h-.707l.572.415-.218.672.572-.415.571.415-.218-.672.572-.415h-.707zM2.231 7.603l-.218-.672-.219.672h-.707l.572.415-.218.673.572-.416.571.416-.218-.673.572-.415zM2.013 2.078l-.219.672h-.707l.572.416-.218.672.572-.415.571.415-.218-.672.572-.416h-.707zM5 4.504l-.218.673h-.707l.572.415-.219.672L5 5.849l.572.415-.218-.672.572-.415h-.707zM5.219 7.603L5 6.931l-.218.672h-.707l.572.415-.219.673L5 8.275l.572.416-.218-.673.572-.415zM8.206 7.603l-.218-.672-.218.672h-.707l.572.415-.219.673.572-.416.572.416-.219-.673.572-.415zM7.988 4.504l-.218.673h-.707l.572.415-.219.672.572-.415.572.415-.219-.672.572-.415h-.707zM5 2.078l-.218.672h-.707l.572.416-.219.672L5 3.423l.572.415-.218-.672.572-.416h-.707zM7.988 2.078l-.218.672h-.707l.572.416-.219.672.572-.415.572.415-.219-.672.572-.416h-.707z"/></g></g></g></svg>